<svg width="738" height="268" viewBox="0 0 738 268" fill="none" xmlns="http://www.w3.org/2000/svg">
<path d="M644.331 54L738 0H569L644.331 54Z" fill="#19486A"/>
<path d="M505 167L443.5 0H211L505 167Z" fill="#0A97D9"/>
<path d="M330 0L505 167L454.5 3.94488L330 0Z" fill="#26BDE2"/>
<path d="M482 0L382 137L403 0H482Z" fill="#4C9F38"/>
<path d="M205.5 101.5L264.5 127L184 1.5L205.5 101.5Z" fill="#A21942"/>
<path d="M210 103.5L125 127L128.5 22L210 103.5Z" fill="#FD6925"/>
<path d="M0 0L97.5 118.5H0V0Z" fill="#FAD900"/>
<path d="M505 167L548 0H414L505 167Z" fill="#00689D"/>
<path d="M636 0L505 167L547.5 0H636Z" fill="#0A97D9"/>
<path d="M0 89L85 115.5L0 151.5V89Z" fill="#FCC30B"/>
<path d="M392.5 0L264.5 127L234.5 0H392.5Z" fill="#A21942"/>
<path d="M224.5 0L300.5 37L382 137L407 0H224.5Z" fill="#3F7E44"/>
<path d="M169 0L382 137L313 0H169Z" fill="#56C02B"/>
<path d="M179.5 0L264.5 127L320 0H179.5Z" fill="#C5192D"/>
<path d="M164.5 0L147.5 204L75 0H164.5Z" fill="#FD9D24"/>
<path d="M32 177L147.5 204L84 112L32 177Z" fill="#FCC30B"/>
<path d="M0 261.5V149.5L84.5 115.5L0 261.5Z" fill="#BF8B2E"/>
<path d="M147.5 204L82 0H0L147.5 204Z" fill="#DDA63A"/>
<path d="M210 103.5L192 0H101L210 103.5Z" fill="#FF3A21"/>
</svg>
